<svg width="10" height="10" viewBox="0 0 10 10" fill="none" xmlns="http://www.w3.org/2000/svg">
<g clip-path="url(#clip0_606_133)">
<path d="M0.518231 8.13129C0.200784 8.39737 0.159146 8.87041 0.42523 9.18786C0.691313 9.50531 1.16436 9.54695 1.48181 9.28086L0.518231 8.13129ZM9.74714 2.06623C9.78346 1.65362 9.47841 1.28968 9.06579 1.25336L2.34179 0.661504C1.92917 0.625185 1.56524 0.930234 1.52892 1.34285C1.4926 1.75547 1.79765 2.11941 2.21027 2.15573L8.18716 2.68182L7.66106 8.65871C7.62474 9.07133 7.92979 9.43527 8.34241 9.47159C8.75503 9.50791 9.11897 9.20286 9.15529 8.79024L9.74714 2.06623ZM1.48181 9.28086L9.48182 2.57526L8.51824 1.42568L0.518231 8.13129L1.48181 9.28086Z" fill="#09836D"/>
</g>
<defs>
<clipPath id="clip0_606_133">
<rect width="10" height="10" fill="white"/>
</clipPath>
</defs>
</svg>
