<svg width="18" height="19" viewBox="0 0 18 19" fill="none" xmlns="http://www.w3.org/2000/svg">
<path d="M8.99822 12.9375C8.4111 12.9375 7.8737 12.7931 7.38601 12.5043C6.89832 12.2154 6.51006 11.8272 6.22124 11.3395C5.93241 10.8518 5.788 10.3144 5.788 9.72727C5.788 9.13542 5.93241 8.59801 6.22124 8.11506C6.51006 7.62737 6.89832 7.23911 7.38601 6.95028C7.8737 6.66146 8.4111 6.51705 8.99822 6.51705C9.59008 6.51705 10.1275 6.66146 10.6104 6.95028C11.0981 7.23911 11.4864 7.62737 11.7752 8.11506C12.064 8.59801 12.2085 9.13542 12.2085 9.72727C12.2085 10.3144 12.064 10.8518 11.7752 11.3395C11.4864 11.8272 11.0981 12.2154 10.6104 12.5043C10.1275 12.7931 9.59008 12.9375 8.99822 12.9375ZM8.31641 5.09659V0.778409H9.68004V5.09659H8.31641ZM12.7482 6.94318L11.7823 5.97727L14.8505 2.90909L15.8164 3.875L12.7482 6.94318ZM13.6289 10.4091V9.04545H17.9471V10.4091H13.6289ZM14.8505 16.5455L11.7823 13.4773L12.7482 12.5114L15.8164 15.5795L14.8505 16.5455ZM8.31641 18.6761V14.358H9.68004V18.6761H8.31641ZM3.14595 16.5455L2.18004 15.5795L5.24822 12.5114L6.21413 13.4773L3.14595 16.5455ZM0.0493608 10.4091V9.04545H4.36754V10.4091H0.0493608ZM5.24822 6.94318L2.18004 3.875L3.14595 2.90909L6.21413 5.97727L5.24822 6.94318Z" fill="#121212"/>
</svg>
